<svg xmlns="http://www.w3.org/2000/svg" id="Capa_1" data-name="Capa 1" viewBox="0 0 106 50"><defs><style>.cls-1{fill:#fff}.cls-2,.cls-3{fill:#081f2d}.cls-2{fill-rule:evenodd}</style></defs><path d="M64.76.76H105V41H64.76z" class="cls-1"/><path d="M70.43 39.39h-.39l-1.08-3.29h.52l.75 2.39.76-2.39h.53l-1.09 3.29zM73.13 38.36h-.55c-.28 0-.42.12-.42.33s.13.33.43.33a.57.57 0 0 0 .44-.13.52.52 0 0 0 .1-.35Zm0 1v-.21a.79.79 0 0 1-.63.24.82.82 0 0 1-.62-.21.7.7 0 0 1-.19-.51c0-.39.27-.67.81-.67h.62v-.17c0-.29-.15-.44-.52-.44a.55.55 0 0 0-.51.23l-.31-.29a1 1 0 0 1 .84-.34c.65 0 1 .27 1 .8v1.57ZM75.09 39.39a.6.6 0 0 1-.64-.65V36.1h.47v2.62c0 .17.06.27.25.27h.21v.4ZM76.67 39.39a.6.6 0 0 1-.64-.65V36.1h.47v2.62c0 .17.06.27.25.27H77v.4ZM78.84 37.71a.48.48 0 0 0-.46-.3.49.49 0 0 0-.47.3 1 1 0 0 0-.06.32h1.05a.63.63 0 0 0-.06-.32m-1 .65a.57.57 0 0 0 .6.65.7.7 0 0 0 .57-.24l.29.28a1.07 1.07 0 0 1-.87.37c-.59 0-1-.31-1-1.2s.39-1.2 1-1.2a1 1 0 0 1 1 1.13v.21ZM82.24 37.44c-.43 0-.49.36-.49.78s.06.78.49.78.48-.37.48-.78-.06-.78-.48-.78m.49 2v-.25a.72.72 0 0 1-.62.28.81.81 0 0 1-.57-.21 1.39 1.39 0 0 1-.26-1 1.36 1.36 0 0 1 .26-1 .8.8 0 0 1 .57-.21.72.72 0 0 1 .61.26V36.1h.47v3.29ZM85.42 37.71a.5.5 0 0 0-.47-.3.48.48 0 0 0-.46.3.63.63 0 0 0-.06.32h1a.76.76 0 0 0-.06-.32m-1 .65A.57.57 0 0 0 85 39a.68.68 0 0 0 .57-.24l.3.28a1.1 1.1 0 0 1-.88.37c-.58 0-1.05-.31-1.05-1.2s.39-1.2 1-1.2a1 1 0 0 1 1 1.13v.21ZM89 36.85l-.51 1.45h1Zm.86 2.54-.22-.66h-1.3l-.23.66h-.53l1.21-3.29h.4l1.2 3.29ZM92 37.44c-.43 0-.5.36-.5.78s.07.78.5.78.48-.37.48-.78-.06-.78-.48-.78m.69 1.77a.82.82 0 0 1-.58.21.71.71 0 0 1-.61-.28v.25H91V36.1h.47v1.18a.75.75 0 0 1 .62-.26.81.81 0 0 1 .57.21 1.41 1.41 0 0 1 .26 1 1.44 1.44 0 0 1-.26 1M95.1 39.39v-.24a.87.87 0 0 1-1.2.06.88.88 0 0 1-.24-.67v-1.49h.47v1.43a.46.46 0 0 0 .47.52.47.47 0 0 0 .49-.52v-1.43h.47v2.34ZM97.74 37.6a.44.44 0 0 0-.36-.16.48.48 0 0 0-.46.53v1.42h-.47v-2.34h.46v.25a.79.79 0 0 1 .62-.28.72.72 0 0 1 .56.22ZM99.9 37.6a.42.42 0 0 0-.35-.16.49.49 0 0 0-.47.53v1.42h-.47v-2.34h.46v.25a.8.8 0 0 1 .63-.3.74.74 0 0 1 .56.22ZM101.66 36.62h-.36l.35-.74h.52Zm.32 1.74h-.55c-.27 0-.42.12-.42.33s.14.33.43.33a.56.56 0 0 0 .44-.13.47.47 0 0 0 .1-.35Zm0 1v-.21a.77.77 0 0 1-.62.24.84.84 0 0 1-.63-.21.74.74 0 0 1-.18-.51c0-.39.27-.67.8-.67h.65v-.17c0-.29-.14-.44-.51-.44a.54.54 0 0 0-.51.23l-.31-.29a1 1 0 0 1 .84-.34c.64 0 1 .27 1 .8v1.57ZM71.24 35.27v-1.88l-.62 1.22h-.43l-.62-1.22v1.88h-.63v-3.23h.62l.85 1.75.83-1.75h.63v3.23h-.63zM72.46 35.27v-3.23h2.12v.56h-1.49v.76h1.27v.56h-1.27v.79h1.49v.56h-2.12zM76.27 32.6v2.67h-.63V32.6h-.85v-.56h2.32v.56h-.84zM78.68 32.6h-.6v.86h.6a.43.43 0 1 0 0-.86m.48 2.67L78.54 34h-.46v1.29h-.63V32h1.27a1 1 0 0 1 1 1 .87.87 0 0 1-.59.85l.72 1.39ZM81.74 32.75a.5.5 0 0 0-.4-.17.52.52 0 0 0-.41.17c-.12.14-.15.29-.15.91s0 .77.15.9a.53.53 0 0 0 .41.18.51.51 0 0 0 .4-.18c.13-.13.16-.28.16-.9s0-.77-.16-.91m.47 2.19a1.16 1.16 0 0 1-.87.36 1.14 1.14 0 0 1-.87-.36c-.33-.32-.32-.73-.32-1.28s0-1 .32-1.29a1.14 1.14 0 0 1 .87-.36 1.16 1.16 0 0 1 .87.36c.33.32.32.73.32 1.29s0 1-.32 1.28M84.24 32.6h-.59v.89h.59a.45.45 0 1 0 0-.89m0 1.46h-.62v1.21H83V32h1.25a1 1 0 1 1 0 2M87.19 32.75a.5.5 0 0 0-.4-.17.51.51 0 0 0-.41.17c-.12.14-.16.29-.16.91s0 .77.16.9a.51.51 0 0 0 .41.18.51.51 0 0 0 .4-.18c.12-.13.16-.28.16-.9s0-.77-.16-.91m.47 2.19a1.24 1.24 0 0 1-1.75 0 1.64 1.64 0 0 1-.32-1.28c0-.56 0-1 .32-1.29a1.24 1.24 0 0 1 1.75 0c.32.32.32.73.32 1.29a1.64 1.64 0 0 1-.32 1.28M88.44 35.27v-3.23h.64v2.67h1.46v.56h-2.1z" class="cls-2"/><path d="M90.88 32.04h.63v3.22h-.63z" class="cls-3"/><path d="M93.34 32.6v2.67h-.64V32.6h-.84v-.56h2.32v.56h-.84zM95.34 33l-.41 1.17h.8Zm.75 2.27-.19-.57h-1.15l-.19.57h-.66L95.07 32h.5l1.18 3.23ZM98.89 35.27l-1.28-1.98v1.98h-.63v-3.23h.56l1.28 1.98v-1.98h.63v3.23h-.56zM101.12 33l-.41 1.17h.8Zm.75 2.27-.19-.57h-1.14l-.2.57h-.66l1.18-3.27h.49l1.18 3.23ZM79.62 26l.1-.1.18-.05.14-.06.14-.27.08.06.08-.19.15-.11.2-.13.14-.27.27-.28.31-.24v-.18h.13v-.09h.19v-.2l.11.06.15-.28.18-.26.07-.33.21-.21.1-.76.31-.62.12-.18.25-.13.43.13.11.15.2.09.26-.26h.35v-.09H85.49l.22.18.13.23.09.16.12.1-.12.55v.38l.07.2v.25l-.2.35-.07.55h-.13l-.05.08-.17.56.22.4.4-.19.36-.06.35-.43.48-.26.41-.77.13-.79.26-.5.16-.48.17-.35.12-.2.17-.21.17-.28.18-.06.07-.11.23-.12.25-.17h.31l.37.08.11.11.19.13.06.14v.21l.14.16-.05.25.09.18v.47l-.2.3v.21l-.19.27h-.09l-.16.18-.14.28-.09.05-.07.08-.16.11-.13.09-.2.13-.18.17v.21h.95l.24-.08.11-.15h.26v-.08l.22-.05h.23l.32-.31.31-.24v-.07l.05-.05.06-.06.13-.23.13-.27.31-.2.18-.31.21-.17.18-.22.12-.19.15-.14.16-.15.16-.13.15-.32.14-.26.2-.1.13-.06.18-.25.23-.26.21-.22.22-.1.11-.05v-.09l.53.11.35-.19v-.08l.42.09.17.21v.2l.09.15v.13l.11.07-.14.66h-.08l.08.06-.24.29-.09.46-.06.51.18.38.51.19h-.07v.05H97l.81-.28.26-.08.53-.12.25-.09H99l.28-.08.24-.11.44-.1.39-.13.26-.15h.45l.13-.09h.15l.33-.2H101.9l.24-.09.14-.08h.12v.06l.18-.12v.11l.08.06.08-.06v-.08h-.09l.08-.1h.2l.07-.08v.11l.12.06.13-.2.34-.17h.16l.14-.05.12-.15v.09l.09.05v-.1h-.12l.12-.12.07-.06v.25h.16l.15-.1h.14v.08h.07l.06.18v.54h-.07l-.15.08v.14l-.17-.07V21h-.06l-.15.11-.06.06-.06.06h-.06l-.06-.07h-.06v.23l-.22-.08-.09.09-.07.05-.36.15h-.06l-.17.16v-.08l-.08-.05-.09.12v.14h-.26V22l-.15-.06v-.31l-.13.19V22.03h-.09l-.18.05v.13h-.22l-.15.1h-.23l-.25.05-.21.16-.48.17h-.34l-.33.29-.45-.1-.4.05-.26.11h-.24l-.18.12-.36.07h-.21l-.76.36-.89-.18-.07-.1v-.05l-.16-.07h-.21l-.06.13-.08.08-.06.1-.1.14-.11.08-.13.1-.11.11-.25.07h-.11l-.16.18-.15.09H94v.09h-.21l-.09.08v.08l-.44-.17-.44-.19-.16-.16-.15-.15-.07-.07h-.13l-.15.09-.11.14-.15.06-.19.14-.23.09-.24.16-.38.14-.34.23-.32.07-.31.06-.38.17-.37.15-.23.08h-.31l-.35.08-.41-.08-.14-.17-.25-.08-.3.24-.31.24-.08.14-.17.06-.5.29-.45.34-.14.06v.08h-.21l-.14.05v.08l-.41-.09-.21-.2-.32-.15-.21-.14V24.38l-.07-.09h.06v-.31l.07-.33.24-.34.08-.36-.08-.07h-.12l-.25.16-.21.17-.19.32-.18.26-.23.29-.15.27-.22.3-.18.22v.08l-.22.22-.06.29-.19.09-.16.13-.09.25-.2.13-.05.07h-.1l-.16.21-.14.24-.21.09-.14.22-.25.12-.2.21-.3.1-.11.08-.27.09h-.22l-.38.18-.53.17h-.28l-.13.06-.08-.06h-.28l-.14-.21v-.26L78 27v-.28l.09-.21.07-.2v-.42l.07-.14.14-.42v-.42l.17-.38v-.42l.16-.29v-.05h-.09l.12-.3.17-.24v-.39l.09-.29.07-.29.05-.29.18-.35v-.42l.12-.25v-.38l.12-.08v-.59h.07l.06-.09v-.37l.18-.3v-.47l.08.05V18.55l.08-.3.13-.24.07-.56.09-.55.17-.29v-.37h.09l.08-.51.13-.29V15l.17-.3.12-.34v-.38l-.08-.29-.14.13V14l-.2.08-.13.17-.09.25-.08.17-.17.17-.12.16-.13.27-.13.24-.17.21-.13.26-.16.12-.13.13-.21.33.02.44h-.09V17.17l-.21.16-.12.25v.09l-.16.18-.18.2v.16l-.16.05V18.47l-.17.17-.17.25-.09.18-.11.12-.13.12v.21l-.14.05-.07.08-.2.23-.1.11-.21.38-.18.19-.11.29v.06l-.12.13-.1.11v.16l-.12.09-.05.13-.25.21-.21.17v.21l-.12.08v.39h.24l.26-.13h.39l.1-.05.17-.1.11.07.14.1H77.2v-.24l.06-.18v.25h.16v-.21h.17v.05h.08v.5l-.13.12h-.14v.18h.13v.08h-.51l-.22.14-.16.12v.12l-.09.13h-.12v-.05l-.1.07h-.12l-.09.18h-.09v-.17l-.08-.09-.13.12-.13.14h-.25l-.13.17h-.13l-.13.33-.16.07h-.08l-.3.08-.17.12v.06l-.24.05-.68.27V25.19h-.12v-.08l-.17-.05-.12.05v.21l.1.24-.47.13-.08.25-.06.16-.49.66-.08.09-.14.46-.13-.09h-.21v.31l.11.23-.31.13-.13.21.07.18-.33.08-.23-.21v-.11l-.11-.11v.45l.15.37h-.21l-.18-.08-.29.34-.13.36-.54.29.08.19-.3.19-.1.26-.29.24-.29.29-.13.41-.48.65-.42.34-.19.69-.68.27-.84.63h-.29V33l.14-.65-.14.1.28-.19.31-.35.22-.37.5-.53.39-.52.21-.43.38-.33.18-.25.24-.29.28-.58.57-.37v-.25l.14-.2.3-.34.34-.42.16-.3.24-.11v.16l.11.05.2-.39.14.15h.21l.08-.19-.12-.1h-.09l-.18.08v-.26h.06-.64l-.89.35h-.09v.07h-.2l-.13-.21h-.17l-.09.09.09.09H67.96l-.2-.37-.14-.43-.29-.16v-.42l.72-.71.54-.05 1.23-.37h.63l.55-.2.3-.08.34-.2H72v-.1l.07-.17v-.09l.16.22.38-.07-.2-.13.17-.23.08-.16.18-.08v-.18l.08-.17v-.13l.26-.32.34-.27.08-.12v-.21l.12-.08.46-.29h-.09l.25-.25.17-.26.09-.12v-.21l.2-.15.21-.25.21-.3.25-.24.09-.09.18-.07.05-.07.22-.17v-.32l.15-.11.11-.21.15-.11v-.19l.13-.09.08-.09.1-.16.11-.17.16-.29v-.09h.09v-.13l.16-.2v-.14h.13v-.12l.55-.59.38-.72.17-.12.12-.17.21-.34.18-.38.2-.21.09-.3.39-.09.09-.29v-.25l.13-.16.12-.25.09-.22.13-.12v-.17h.08l.13-.29.21-.26.17-.24.31-.15v-.08l.09-.05v-.13l.21-.2.09-.26.12-.09-.12-.2.2-.12.13-.3.12-.3.21-.24.17-.25.09-.38.47-.42.22-.33v-.21l.09-.31.3-.16.29.12h.34v.35l.2.15v.14h.09l-.12.85-.17.93-.13.08V10.02l-.17.09v.39h-.09l-.08.12v.25l-.12.18v.58l-.18.29-.21.29v.26l-.13.25v.43l-.17.29V14l-.18.26-.12.26V14.97l-.17.39v.54l-.12.2-.09.3-.12.33-.17.39v.38l-.12.3v.33l-.12.34-.26.53-.09.59-.08.05-.08.08v.42l-.12.34-.09.21v.21l-.16.09v.41l-.13.13v.51l-.17.38v.33l-.17.21V23.38l.07.05-.12.25v.3l-.18.5v.34Zm-3.53-3.34v.13h.13v-.13h-.08Zm8.14-16.77-.18.11h.07l.15.06V6.18l.24.16-.09-.08h.14l-.06-.07h-.07H85v-.26l.14-.1v-.1l.11-.06.1-.21.25-.23.09-.23.14-.2.09-.12v-.11l.14-.1v-.15l.07-.1.12-.2.21-.18.11-.19.18-.16-.1-.4-.14-.09h-.19l-.26-.09-.26-.06-.09.07-.06.08h.08l-.06.05h-.24v.11l-.11.1h-.13v-.08c0 .13-.09.27-.14.4a1.54 1.54 0 0 1-.36.55V4.37h-.08V4.6h-.1l.07.17h-.14v.08l-.07.08v.14h-.14v.43l.16.1h-.23v.06h.14v.09Zm20.41 14.8v-.06h-.06v.07h.07Zm-.23-.15v-.11h-.15v.11h.09Zm-.25.52V21h.06Zm-.13-.59v-.08.09Zm-.79.51v-.07.16Zm-32.1 5h.06l-.11-.1h-.16l.19.22ZM84.85 5.85h.07-.07Zm-.4-.13h.06Zm0 .24h.06l-.28.04ZM95.16 22l.24-.44V21l-.18-.38-.44.38-.29.35-.15.25-.25.26-.23.4-.09.41v.2l.13.08h.1l.05.08.14-.06.16-.07.14-.27.29-.11v-.21l.12-.15v-.06h.05Zm-6 .52.11-.13.11-.05.21-.27.13-.22.06-.29-.13-.19-.26.11-.27.27-.15.4-.1.29v.27l.27-.09Zm-12.88.86v.13h.06v-.09h-.12Zm.12-.12h.14-.14Zm.5-.21v.13h.1V23h-.13Zm-1.9-.41v-.14h-.08v.09Z" class="cls-2"/><path d="M1.1 43.77h103.86v5.47H1.1z" class="cls-1"/><path d="M4.4 46.56a1.1 1.1 0 0 1-.31-.28A.5.5 0 0 1 4 46a.41.41 0 0 1 .1-.27.35.35 0 0 1 .26-.11.81.81 0 0 1 .41.12v-.3a1.08 1.08 0 0 0-.46-.09.73.73 0 0 0-.54.21.75.75 0 0 0-.2.55.84.84 0 0 0 .12.45 1.46 1.46 0 0 0 .4.37 1.48 1.48 0 0 1 .33.29.5.5 0 0 1 .08.27.41.41 0 0 1-.1.28.37.37 0 0 1-.28.1.82.82 0 0 1-.48-.2V48a.93.93 0 0 0 .54.16.78.78 0 0 0 .57-.22.79.79 0 0 0 .2-.55.76.76 0 0 0-.13-.39 1.34 1.34 0 0 0-.42-.39" class="cls-3"/><rect width=".38" height="2.78" x="7.51" y="45.32" class="cls-3" rx=".05"/><path d="M11.26 46.56a1.1 1.1 0 0 1-.31-.28.5.5 0 0 1-.08-.27.41.41 0 0 1 .1-.27.35.35 0 0 1 .26-.11.78.78 0 0 1 .41.12v-.3a1.08 1.08 0 0 0-.46-.09.73.73 0 0 0-.54.21.79.79 0 0 0-.2.55.84.84 0 0 0 .12.45 1.46 1.46 0 0 0 .4.37 1.28 1.28 0 0 1 .33.29.5.5 0 0 1 .08.27.41.41 0 0 1-.1.28.37.37 0 0 1-.28.1.82.82 0 0 1-.48-.2h-.01V48a.93.93 0 0 0 .54.16.78.78 0 0 0 .57-.22.79.79 0 0 0 .2-.55.76.76 0 0 0-.13-.44 1.24 1.24 0 0 0-.42-.39M14.09 45.32a.05.05 0 0 0-.05 0v.26H14.64v2.39H15v-2.3h.55v-.26ZM18.47 47.76v-.88h.71v-.26h-.71v-.85h.76a.05.05 0 0 0 .05 0v-.26H18.09v2.69h1.19v-.3ZM23.76 45.32a.07.07 0 0 0-.05 0l-.62 1.93a.53.53 0 0 0 0 .12v-.11l-.64-1.94a.07.07 0 0 0-.05 0h-.45v2.69h.35v-1.79l.62 1.85h.25l.61-1.87v1.86h.36v-2.69h-.05ZM27.73 45.32h-.32l-.79 2.69h.31a.07.07 0 0 0 .05 0l.2-.74H28l.2.74h.32l-.77-2.69a.07.07 0 0 0-.05 0m-.17.62.32 1.06h-.59ZM34.7 45.32h-.61v2.69h.59a1.06 1.06 0 0 0 .87-.4 1.66 1.66 0 0 0 .31-1 1.5 1.5 0 0 0-.3-1 1.09 1.09 0 0 0-.86-.35m-.27.35h.26a.68.68 0 0 1 .57.26 1.24 1.24 0 0 1 .2.75 1.33 1.33 0 0 1-.21.8.67.67 0 0 1-.58.28h-.24ZM38.81 47.76v-.88h.71v-.26h-.71v-.85h.76v-.26h-1.09v2.69h1.19v-.25l-.05-.05ZM46.21 45.32h-.32l-.8 2.69h.31l.21-.74h.76l.21.74H47l-.78-2.69m-.18.62.29 1.06h-.59ZM49.84 47.76v-2.39H49.5v2.69h1.12a.05.05 0 0 0 .05 0v-.25a.05.05 0 0 0-.05-.05ZM53.54 47.76v-.88h.7v-.26h-.7v-.85h.76a.05.05 0 0 0 .05 0v-.26H53.16v2.69h1.19v-.3ZM58 46.83a.73.73 0 0 0 .44-.75.77.77 0 0 0-.2-.55.73.73 0 0 0-.56-.21h-.63v2.69h.33V47h.15a.21.21 0 0 1 .16.07 1 1 0 0 1 .15.3l.26.75h.33v-.05l-.3-.82a.87.87 0 0 0-.21-.39m-.62-1.16h.25a.38.38 0 0 1 .3.12.48.48 0 0 1 .11.34.51.51 0 0 1-.12.35.36.36 0 0 1-.29.13h-.25ZM60.83 45.32v.26h.54v2.39H61.71v-2.3H62.3v-.26h-.05ZM65.44 45.32h-.31l-.79 2.69h.3l.2-.74h.77l.2.74h.31l-.77-2.69m-.17.62.39 1.06H65ZM71.58 45.32v.26h.54v2.39H72.46v-2.3H73v-.26ZM76 47.76v-.88h.7v-.26H76v-.85h.76v-.26h-1.1a.05.05 0 0 0-.05 0v2.69a.05.05 0 0 0 .05 0h1.15v-.3ZM81.24 45.32l-.62 1.93v.12-.11l-.64-1.94h-.37v2.69h.26v-1.79l.62 1.85a.07.07 0 0 0 .05 0h.2l.61-1.87v1.86h.26v-2.69ZM85 45.32h-.62v2.69h.29v-1H85a.79.79 0 0 0 .62-.26 1 1 0 0 0 .22-.66.89.89 0 0 0-.21-.63.76.76 0 0 0-.57-.22m-.28.35H85c.29 0 .43.17.43.52a.65.65 0 0 1-.12.41.43.43 0 0 1-.34.14h-.2ZM89.32 46.83a.73.73 0 0 0 .44-.75.77.77 0 0 0-.2-.55.73.73 0 0 0-.56-.21h-.68v2.69h.33V47h.15a.21.21 0 0 1 .2 0 .81.81 0 0 1 .15.3l.26.75h.33V48l-.3-.82a.87.87 0 0 0-.21-.39m-.62-1.16H89a.38.38 0 0 1 .3.12.48.48 0 0 1 .11.34.51.51 0 0 1-.12.35.35.35 0 0 1-.29.13h-.3ZM93.25 45.32h-.31l-.79 2.69h.31l.21-.74h.76l.2.74H94l-.78-2.69m-.17.62.33 1.06h-.59ZM98 45.32v2l-1-2a.05.05 0 0 0-.05 0h-.33v2.69h.26v-2l1 2h.32v-2.64ZM101.9 45.36a.07.07 0 0 0-.05 0h-.36l-.79 2.69h.31l.2-.74h.77l.2.74h.31Zm-.22.58L102 47h-.59Z" class="cls-3"/><path d="M20.54 7.25a1 1 0 0 1-.48 1.08 1.54 1.54 0 0 1-.3.11h-.16a1.07 1.07 0 0 1-1-.87L17.46 2a1 1 0 0 1 .17-.8 1 1 0 0 1 .66-.4h.13a1.07 1.07 0 0 1 1 .87l1.08 5.59m-8 3.63-4.72-4.1a1.14 1.14 0 0 0-.72-.26 1.13 1.13 0 0 0-.82.39 1.08 1.08 0 0 0 .13 1.53l4.79 4.1a1.19 1.19 0 0 0 .72.25 1.08 1.08 0 0 0 .53-.14 1.42 1.42 0 0 0 .28-.22 1.06 1.06 0 0 0 .25-.8 1 1 0 0 0-.38-.74m-3.9 10.53a1 1 0 0 0 .52-.14 1.1 1.1 0 0 0 .55-1 1.14 1.14 0 0 0-1.09-1.13L2.12 19a1.06 1.06 0 0 0-.81.33 1.13 1.13 0 0 0 .78 1.91l6.52.23Zm3.19 6.75a1.18 1.18 0 0 0-.69.26l-4.93 4.12a1.13 1.13 0 0 0-.14 1.56 1.13 1.13 0 0 0 1.39.27l.17-.12 4.94-4.12a1.13 1.13 0 0 0-.74-2m7.85 4.15h-.2a1 1 0 0 0-1 .86l-1 5.64a1 1 0 0 0 .78 1.2h.2a1 1 0 0 0 .5-.14 1 1 0 0 0 .52-.72l1-5.64a1.05 1.05 0 0 0-.84-1.23M21.64 12a7.81 7.81 0 0 0-7.77 8.12A8.22 8.22 0 0 0 23.81 28 1.26 1.26 0 0 1 25 30.11a1.2 1.2 0 0 1-.65.36 10.62 10.62 0 0 1-2 .23 10.8 10.8 0 0 1-7.6-3 10.61 10.61 0 0 1-.46-15 10.6 10.6 0 0 1 10.05-2.87 1.27 1.27 0 0 1-.3 2.49 1.1 1.1 0 0 1-.31 0 8.23 8.23 0 0 0-2.09-.32m24.93-1.55a9.15 9.15 0 0 0-1.73.18 13.27 13.27 0 0 0-12.09-7.78V5.4A10.75 10.75 0 0 1 43 12.63l.42 1.16 1.13-.39a6.81 6.81 0 0 1 2.05-.4 7.16 7.16 0 0 1 .2 14.32h-2.65a1.27 1.27 0 0 0 0 2.54h2.65a9.56 9.56 0 0 0 9.26-9.83 9.55 9.55 0 0 0-9.52-9.58" class="cls-1"/><path d="M23 19.5c-.86-.28-1.78-.63-1.79-1.32s.81-1.12 1.57-1.13a2.4 2.4 0 0 1 1.38.46.54.54 0 0 0 .88-.42.57.57 0 0 0-.23-.43 3.29 3.29 0 0 0-2.09-.66 2.39 2.39 0 0 0-2.59 2.2c0 1.38 1.36 2 2.37 2.31s1.88.66 1.88 1.36-.85 1-1.7 1a2.76 2.76 0 0 1-1.55-.42.66.66 0 0 0-.39-.12.52.52 0 0 0-.52.53.58.58 0 0 0 .27.46 4.09 4.09 0 0 0 2.2.62c1.35 0 2.79-.7 2.77-2.15S24 19.82 23 19.5M27.16 16a.56.56 0 0 0-.53.55l.09 6.81a.56.56 0 0 0 .55.53.55.55 0 0 0 .53-.55l-.09-6.81a.54.54 0 0 0-.55-.53M40.25 16.33a.53.53 0 0 0-.55-.52l-5 .06a.54.54 0 0 0-.54.55.53.53 0 0 0 .55.52h2l.08 6.26a.53.53 0 0 0 .54.54.54.54 0 0 0 .53-.55l-.08-6.27h1.93a.54.54 0 0 0 .54-.55M35.48 23.39l-.26-.68-2.5-6.42a.62.62 0 0 0-1.16 0l-1 2.69-.15.43L29 23.45c0 .06 0 .18.17.29a.6.6 0 0 0 .27.06 1 1 0 0 0 .83-.67l.5-1.43h2.92l.55 1.42a.94.94 0 0 0 .84.64.57.57 0 0 0 .32-.09.25.25 0 0 0 .11-.26m-4.39-2.73 1-2.63.08-.26.09.27 1 2.59ZM45.71 23.26l-.27-.69-2.5-6.43a.6.6 0 0 0-.59-.39.59.59 0 0 0-.57.41l-1 2.69-.16.44-1.45 4.06s0 .17.17.28a.61.61 0 0 0 .28.06.94.94 0 0 0 .82-.67L41 21.6h2.93l.49 1.4a1 1 0 0 0 .84.65.59.59 0 0 0 .33-.1.24.24 0 0 0 .1-.25m-4.39-2.74 1-2.62.08-.27.09.28 1 2.58Z" class="cls-1"/></svg>